<?xml version="1.0" standalone="no"?>
<!DOCTYPE svg PUBLIC "-//W3C//DTD SVG 20010904//EN"
 "http://www.w3.org/TR/2001/REC-SVG-20010904/DTD/svg10.dtd">
<svg version="1.0" xmlns="http://www.w3.org/2000/svg"
 width="1280.000000pt" height="1136.000000pt" viewBox="0 0 1280.000000 1136.000000"
 preserveAspectRatio="xMidYMid meet">
<metadata>
Created by potrace 1.15, written by Peter Selinger 2001-2017
</metadata>
<g transform="translate(0.000000,1136.000000) scale(0.100000,-0.100000)"
fill="#000000" stroke="none">
<path d="M6257 11172 c-38 -64 -506 -866 -1040 -1781 -632 -1083 -978 -1666
-991 -1672 -12 -4 -712 -139 -1556 -299 -2975 -565 -2665 -503 -2665 -531 0
-20 186 -204 905 -894 498 -478 1176 -1130 1508 -1449 l603 -579 -5 -36 c-4
-20 -20 -148 -36 -286 -16 -137 -61 -513 -100 -835 -84 -693 -99 -820 -230
-1910 -55 -459 -102 -850 -105 -867 -5 -30 -4 -33 18 -33 14 0 695 297 1513
661 2232 991 2432 1079 2440 1079 4 0 202 -81 438 -179 469 -195 1537 -639
2281 -948 259 -108 646 -269 860 -358 215 -89 391 -161 393 -160 2 2 -97 680
-478 3242 -60 409 -110 752 -110 763 0 14 473 498 1448 1482 1162 1173 1447
1466 1447 1486 l0 26 -445 74 c-1474 244 -3864 643 -3865 645 -1 1 -482 778
-1070 1727 -587 949 -1072 1730 -1079 1737 -8 9 -28 -16 -79 -105z"/>
</g>
</svg>
